<!DOCTYPE svg PUBLIC "-//W3C//DTD SVG 1.1//EN" "http://www.w3.org/Graphics/SVG/1.1/DTD/svg11.dtd">
<!-- Uploaded to: SVG Repo, www.svgrepo.com, Transformed by: SVG Repo Mixer Tools -->
<svg version="1.1" id="_x32_" xmlns="http://www.w3.org/2000/svg" xmlns:xlink="http://www.w3.org/1999/xlink" width="85px" height="85px" viewBox="-51.2 -51.2 614.40 614.40" xml:space="preserve" fill="#000000" stroke="#000000" stroke-width="7.68">
<g id="SVGRepo_bgCarrier" stroke-width="0" transform="translate(0,0), scale(1)">
<path transform="translate(-51.2, -51.2), scale(19.2)" d="M16,30.13999053149631C17.9242152571559,30.633542666082107,20.090632503961892,30.02667584491213,21.779179961668234,28.98025071691721C23.44003401689765,27.95098771966329,24.08107430306197,25.901048424545124,25.301871687038982,24.37544288654947C26.45796580968247,22.930695691725585,27.96321547156501,21.803473359673035,28.830168505829995,20.168774453531285C29.770303526044728,18.396085935896036,31.244745998348286,16.35450786390346,30.5550586028361,14.470201696301809C29.802885353047913,12.415176908400166,26.77117742664249,12.260770991379342,25.33224051938479,10.61202842399086C24.2209256357975,9.338677142846329,24.719442186892117,6.8416597144232405,23.218761045940134,6.064227808166422C21.629343969074508,5.240826011352395,19.73269838988533,6.562665365846942,17.95733960776314,6.7914411468428C16.671771775980602,6.957101624995637,15.410854150268051,6.995738755983877,14.136843803210756,7.234539257923942C12.839597714484697,7.477695067327769,11.628867429829919,7.907431069521355,10.346111288968022,8.218089797779516C8.466319993075356,8.673338893667998,5.615038114005316,7.775194968885404,4.753711647381367,9.506952392231472C3.8591232268062052,11.3055853127346,7.52944433856142,13.125609982439105,6.948772808980479,15.04867768787199C6.170220796044871,17.627085887352234,1.569863142457423,18.073056131415555,1.3564580822267853,20.7579751916967C1.1877398320116037,22.880674837761575,4.3065309176925535,23.82019986657854,6.1696320566833105,24.851303053098178C7.773074022508432,25.738702070661546,9.79160116064521,25.45118537711864,11.405486096333519,26.319447185849107C13.178944476949766,27.273558688603387,14.04932226235639,29.63965089552127,16,30.13999053149631" fill="#44c5ac" strokewidth="0"/>
</g>
<g id="SVGRepo_tracerCarrier" stroke-linecap="round" stroke-linejoin="round" stroke="#CCCCCC" stroke-width="2.048"/>
<g id="SVGRepo_iconCarrier"> <style type="text/css">  .st0{fill:#000000;}  </style> <g> <path class="st0" d="M378.625,209.465c-6.531-38.344-13.672-80-15.844-91.844c-5.313-28.906-43.375-45.063-71.656-24.234 c-14.828,10.938-28.094,11.719-35.125,11.719s-14.828,1.563-35.125-11.719c-29.391-19.219-66.344-4.672-71.656,24.234 c-2.172,11.844-9.313,53.5-15.844,91.844C53.906,219.418,0,238.778,0,261.012c0,32.438,114.625,58.719,256,58.719 c141.391,0,256-26.281,256-58.719C512,238.778,458.094,219.418,378.625,209.465z"/> <path class="st0" d="M109.125,330.45l7.547,86.515c39.563,6.719,79.734,10.219,119.703,11.078L256,401.278l19.625,26.765 c39.969-0.859,80.141-4.359,119.703-11.078l7.547-86.515c-48.375,9.359-97.906,13.5-146.875,13.5 C207.016,343.95,157.516,339.809,109.125,330.45z M186.688,401.997c-33.469-1.578-35.563-41.766-35.563-41.766l75.125,14.672 C226.25,374.903,220.156,403.59,186.688,401.997z M360.875,360.231c0,0-2.094,40.188-35.563,41.766 c-33.469,1.594-39.563-27.094-39.563-27.094L360.875,360.231z"/> </g> </g>
</svg>